<svg xmlns="http://www.w3.org/2000/svg" xmlns:xlink="http://www.w3.org/1999/xlink" width="300" zoomAndPan="magnify" viewBox="0 0 224.87999 299.999988" height="400" preserveAspectRatio="xMidYMid meet" version="1.0"><defs><g/><clipPath id="b2d5b3119b"><path d="M 0 0.078125 L 224.761719 0.078125 L 224.761719 299.917969 L 0 299.917969 Z M 0 0.078125 " clip-rule="nonzero"/></clipPath><radialGradient gradientTransform="matrix(1, 0, 0, 1, 0, 0.0800007)" gradientUnits="userSpaceOnUse" r="187.399992" cx="112.439995" id="0db3335c12" cy="149.919993" fx="112.439995" fy="149.919993"><stop stop-opacity="1" stop-color="rgb(80.311584%, 99.891663%, 84.757996%)" offset="0"/><stop stop-opacity="1" stop-color="rgb(80.093384%, 99.623108%, 84.907532%)" offset="0.0078125"/><stop stop-opacity="1" stop-color="rgb(79.830933%, 99.301147%, 85.087585%)" offset="0.0195312"/><stop stop-opacity="1" stop-color="rgb(79.568481%, 98.977661%, 85.266113%)" offset="0.03125"/><stop stop-opacity="1" stop-color="rgb(79.30603%, 98.655701%, 85.446167%)" offset="0.0429688"/><stop stop-opacity="1" stop-color="rgb(79.043579%, 98.33374%, 85.624695%)" offset="0.0546875"/><stop stop-opacity="1" stop-color="rgb(78.781128%, 98.01178%, 85.804749%)" offset="0.0664062"/><stop stop-opacity="1" stop-color="rgb(78.518677%, 97.689819%, 85.983276%)" offset="0.078125"/><stop stop-opacity="1" stop-color="rgb(78.256226%, 97.366333%, 86.16333%)" offset="0.0898438"/><stop stop-opacity="1" stop-color="rgb(77.992249%, 97.044373%, 86.341858%)" offset="0.101562"/><stop stop-opacity="1" stop-color="rgb(77.729797%, 96.722412%, 86.521912%)" offset="0.113281"/><stop stop-opacity="1" stop-color="rgb(77.467346%, 96.400452%, 86.700439%)" offset="0.125"/><stop stop-opacity="1" stop-color="rgb(77.204895%, 96.078491%, 86.880493%)" offset="0.136719"/><stop stop-opacity="1" stop-color="rgb(76.942444%, 95.755005%, 87.059021%)" offset="0.148438"/><stop stop-opacity="1" stop-color="rgb(76.679993%, 95.433044%, 87.239075%)" offset="0.160156"/><stop stop-opacity="1" stop-color="rgb(76.417542%, 95.111084%, 87.417603%)" offset="0.171875"/><stop stop-opacity="1" stop-color="rgb(76.15509%, 94.789124%, 87.597656%)" offset="0.183594"/><stop stop-opacity="1" stop-color="rgb(75.892639%, 94.467163%, 87.776184%)" offset="0.195312"/><stop stop-opacity="1" stop-color="rgb(75.630188%, 94.143677%, 87.956238%)" offset="0.207031"/><stop stop-opacity="1" stop-color="rgb(75.367737%, 93.821716%, 88.134766%)" offset="0.21875"/><stop stop-opacity="1" stop-color="rgb(75.105286%, 93.499756%, 88.314819%)" offset="0.230469"/><stop stop-opacity="1" stop-color="rgb(74.842834%, 93.177795%, 88.493347%)" offset="0.242188"/><stop stop-opacity="1" stop-color="rgb(74.623108%, 92.909241%, 88.642883%)" offset="0.253906"/><stop stop-opacity="1" stop-color="rgb(74.449158%, 92.694092%, 88.763428%)" offset="0.261719"/><stop stop-opacity="1" stop-color="rgb(74.273682%, 92.478943%, 88.882446%)" offset="0.269531"/><stop stop-opacity="1" stop-color="rgb(74.098206%, 92.263794%, 89.001465%)" offset="0.277344"/><stop stop-opacity="1" stop-color="rgb(73.924255%, 92.050171%, 89.122009%)" offset="0.285156"/><stop stop-opacity="1" stop-color="rgb(73.748779%, 91.835022%, 89.241028%)" offset="0.292969"/><stop stop-opacity="1" stop-color="rgb(73.573303%, 91.619873%, 89.360046%)" offset="0.300781"/><stop stop-opacity="1" stop-color="rgb(73.399353%, 91.404724%, 89.480591%)" offset="0.308594"/><stop stop-opacity="1" stop-color="rgb(73.223877%, 91.189575%, 89.599609%)" offset="0.316406"/><stop stop-opacity="1" stop-color="rgb(73.048401%, 90.975952%, 89.718628%)" offset="0.324219"/><stop stop-opacity="1" stop-color="rgb(72.874451%, 90.760803%, 89.839172%)" offset="0.332031"/><stop stop-opacity="1" stop-color="rgb(72.698975%, 90.545654%, 89.958191%)" offset="0.339844"/><stop stop-opacity="1" stop-color="rgb(72.523499%, 90.330505%, 90.077209%)" offset="0.347656"/><stop stop-opacity="1" stop-color="rgb(72.348022%, 90.115356%, 90.197754%)" offset="0.355469"/><stop stop-opacity="1" stop-color="rgb(72.174072%, 89.901733%, 90.316772%)" offset="0.363281"/><stop stop-opacity="1" stop-color="rgb(71.998596%, 89.686584%, 90.435791%)" offset="0.371094"/><stop stop-opacity="1" stop-color="rgb(71.82312%, 89.471436%, 90.556335%)" offset="0.378906"/><stop stop-opacity="1" stop-color="rgb(71.64917%, 89.256287%, 90.675354%)" offset="0.386719"/><stop stop-opacity="1" stop-color="rgb(71.473694%, 89.041138%, 90.794373%)" offset="0.394531"/><stop stop-opacity="1" stop-color="rgb(71.298218%, 88.827515%, 90.914917%)" offset="0.402344"/><stop stop-opacity="1" stop-color="rgb(71.124268%, 88.612366%, 91.033936%)" offset="0.410156"/><stop stop-opacity="1" stop-color="rgb(70.948792%, 88.397217%, 91.152954%)" offset="0.417969"/><stop stop-opacity="1" stop-color="rgb(70.773315%, 88.182068%, 91.273499%)" offset="0.425781"/><stop stop-opacity="1" stop-color="rgb(70.599365%, 87.966919%, 91.392517%)" offset="0.433594"/><stop stop-opacity="1" stop-color="rgb(70.423889%, 87.753296%, 91.511536%)" offset="0.441406"/><stop stop-opacity="1" stop-color="rgb(70.248413%, 87.538147%, 91.63208%)" offset="0.449219"/><stop stop-opacity="1" stop-color="rgb(70.074463%, 87.322998%, 91.751099%)" offset="0.457031"/><stop stop-opacity="1" stop-color="rgb(69.898987%, 87.107849%, 91.870117%)" offset="0.464844"/><stop stop-opacity="1" stop-color="rgb(69.723511%, 86.8927%, 91.990662%)" offset="0.472656"/><stop stop-opacity="1" stop-color="rgb(69.548035%, 86.679077%, 92.10968%)" offset="0.480469"/><stop stop-opacity="1" stop-color="rgb(69.374084%, 86.463928%, 92.228699%)" offset="0.488281"/><stop stop-opacity="1" stop-color="rgb(69.198608%, 86.248779%, 92.349243%)" offset="0.496094"/><stop stop-opacity="1" stop-color="rgb(68.980408%, 85.980225%, 92.498779%)" offset="0.503906"/><stop stop-opacity="1" stop-color="rgb(68.717957%, 85.658264%, 92.677307%)" offset="0.515625"/><stop stop-opacity="1" stop-color="rgb(68.455505%, 85.336304%, 92.857361%)" offset="0.527344"/><stop stop-opacity="1" stop-color="rgb(68.193054%, 85.012817%, 93.035889%)" offset="0.539062"/><stop stop-opacity="1" stop-color="rgb(67.930603%, 84.690857%, 93.215942%)" offset="0.550781"/><stop stop-opacity="1" stop-color="rgb(67.668152%, 84.368896%, 93.39447%)" offset="0.5625"/><stop stop-opacity="1" stop-color="rgb(67.405701%, 84.046936%, 93.574524%)" offset="0.574219"/><stop stop-opacity="1" stop-color="rgb(67.14325%, 83.724976%, 93.753052%)" offset="0.585938"/><stop stop-opacity="1" stop-color="rgb(66.880798%, 83.401489%, 93.933105%)" offset="0.597656"/><stop stop-opacity="1" stop-color="rgb(66.618347%, 83.079529%, 94.111633%)" offset="0.609375"/><stop stop-opacity="1" stop-color="rgb(66.355896%, 82.757568%, 94.291687%)" offset="0.621094"/><stop stop-opacity="1" stop-color="rgb(66.136169%, 82.489014%, 94.441223%)" offset="0.632812"/><stop stop-opacity="1" stop-color="rgb(65.960693%, 82.273865%, 94.560242%)" offset="0.640625"/><stop stop-opacity="1" stop-color="rgb(65.786743%, 82.058716%, 94.67926%)" offset="0.648438"/><stop stop-opacity="1" stop-color="rgb(65.611267%, 81.845093%, 94.799805%)" offset="0.65625"/><stop stop-opacity="1" stop-color="rgb(65.435791%, 81.629944%, 94.918823%)" offset="0.664062"/><stop stop-opacity="1" stop-color="rgb(65.261841%, 81.414795%, 95.037842%)" offset="0.671875"/><stop stop-opacity="1" stop-color="rgb(65.086365%, 81.199646%, 95.158386%)" offset="0.679688"/><stop stop-opacity="1" stop-color="rgb(64.910889%, 80.984497%, 95.277405%)" offset="0.6875"/><stop stop-opacity="1" stop-color="rgb(64.736938%, 80.770874%, 95.396423%)" offset="0.695312"/><stop stop-opacity="1" stop-color="rgb(64.561462%, 80.555725%, 95.516968%)" offset="0.703125"/><stop stop-opacity="1" stop-color="rgb(64.385986%, 80.340576%, 95.635986%)" offset="0.710938"/><stop stop-opacity="1" stop-color="rgb(64.21051%, 80.125427%, 95.755005%)" offset="0.71875"/><stop stop-opacity="1" stop-color="rgb(64.03656%, 79.910278%, 95.875549%)" offset="0.726562"/><stop stop-opacity="1" stop-color="rgb(63.861084%, 79.696655%, 95.994568%)" offset="0.734375"/><stop stop-opacity="1" stop-color="rgb(63.685608%, 79.481506%, 96.113586%)" offset="0.742188"/><stop stop-opacity="1" stop-color="rgb(63.511658%, 79.266357%, 96.234131%)" offset="0.75"/><stop stop-opacity="1" stop-color="rgb(63.293457%, 78.997803%, 96.383667%)" offset="0.757812"/><stop stop-opacity="1" stop-color="rgb(63.031006%, 78.675842%, 96.562195%)" offset="0.769531"/><stop stop-opacity="1" stop-color="rgb(62.768555%, 78.353882%, 96.742249%)" offset="0.78125"/><stop stop-opacity="1" stop-color="rgb(62.506104%, 78.030396%, 96.920776%)" offset="0.792969"/><stop stop-opacity="1" stop-color="rgb(62.243652%, 77.708435%, 97.10083%)" offset="0.804688"/><stop stop-opacity="1" stop-color="rgb(62.023926%, 77.43988%, 97.250366%)" offset="0.816406"/><stop stop-opacity="1" stop-color="rgb(61.84845%, 77.224731%, 97.369385%)" offset="0.824219"/><stop stop-opacity="1" stop-color="rgb(61.672974%, 77.011108%, 97.488403%)" offset="0.832031"/><stop stop-opacity="1" stop-color="rgb(61.499023%, 76.795959%, 97.608948%)" offset="0.839844"/><stop stop-opacity="1" stop-color="rgb(61.323547%, 76.580811%, 97.727966%)" offset="0.847656"/><stop stop-opacity="1" stop-color="rgb(61.148071%, 76.365662%, 97.846985%)" offset="0.855469"/><stop stop-opacity="1" stop-color="rgb(60.974121%, 76.150513%, 97.967529%)" offset="0.863281"/><stop stop-opacity="1" stop-color="rgb(60.798645%, 75.93689%, 98.086548%)" offset="0.871094"/><stop stop-opacity="1" stop-color="rgb(60.580444%, 75.668335%, 98.236084%)" offset="0.878906"/><stop stop-opacity="1" stop-color="rgb(60.317993%, 75.344849%, 98.414612%)" offset="0.890625"/><stop stop-opacity="1" stop-color="rgb(60.055542%, 75.022888%, 98.594666%)" offset="0.902344"/><stop stop-opacity="1" stop-color="rgb(59.835815%, 74.754333%, 98.744202%)" offset="0.914062"/><stop stop-opacity="1" stop-color="rgb(59.661865%, 74.539185%, 98.86322%)" offset="0.921875"/><stop stop-opacity="1" stop-color="rgb(59.486389%, 74.325562%, 98.982239%)" offset="0.929688"/><stop stop-opacity="1" stop-color="rgb(59.310913%, 74.110413%, 99.102783%)" offset="0.9375"/><stop stop-opacity="1" stop-color="rgb(59.092712%, 73.841858%, 99.252319%)" offset="0.945312"/><stop stop-opacity="1" stop-color="rgb(58.872986%, 73.573303%, 99.401855%)" offset="0.957031"/><stop stop-opacity="1" stop-color="rgb(58.699036%, 73.358154%, 99.520874%)" offset="0.964844"/><stop stop-opacity="1" stop-color="rgb(58.480835%, 73.0896%, 99.67041%)" offset="0.972656"/><stop stop-opacity="1" stop-color="rgb(58.261108%, 72.821045%, 99.819946%)" offset="0.984375"/><stop stop-opacity="1" stop-color="rgb(58.085632%, 72.605896%, 99.938965%)" offset="0.992188"/><stop stop-opacity="1" stop-color="rgb(57.998657%, 72.499084%, 100%)" offset="1"/></radialGradient><clipPath id="8fd6562f26"><path d="M 76.515625 160.632812 L 148.363281 160.632812 L 148.363281 170.574219 L 76.515625 170.574219 Z M 76.515625 160.632812 " clip-rule="nonzero"/></clipPath></defs><g clip-path="url(#b2d5b3119b)"><path fill="#ffffff" d="M 0 0.078125 L 224.878906 0.078125 L 224.878906 299.921875 L 0 299.921875 Z M 0 0.078125 " fill-opacity="1" fill-rule="nonzero"/><path fill="url(#0db3335c12)" d="M 0 0.078125 L 0 299.921875 L 224.761719 299.921875 L 224.761719 0.078125 Z M 0 0.078125 " fill-rule="nonzero"/></g><g clip-path="url(#8fd6562f26)"><path fill="#0097b2" d="M 76.515625 160.632812 L 148.363281 160.632812 L 148.363281 170.574219 L 76.515625 170.574219 Z M 76.515625 160.632812 " fill-opacity="1" fill-rule="nonzero"/></g><g fill="#000000" fill-opacity="1"><g transform="translate(62.966045, 145.605823)"><g><path d="M 13.328125 -12.671875 L 13.328125 0 L 10.375 0 L 4.78125 -6.75 L 4.78125 0 L 1.265625 0 L 1.265625 -12.671875 L 4.21875 -12.671875 L 9.8125 -5.921875 L 9.8125 -12.671875 Z M 13.328125 -12.671875 "/></g></g></g><g fill="#000000" fill-opacity="1"><g transform="translate(77.560756, 145.605823)"><g><path d="M 7.65625 0.25 C 6.320312 0.25 5.117188 -0.03125 4.046875 -0.59375 C 2.972656 -1.164062 2.128906 -1.953125 1.515625 -2.953125 C 0.910156 -3.953125 0.609375 -5.082031 0.609375 -6.34375 C 0.609375 -7.59375 0.910156 -8.71875 1.515625 -9.71875 C 2.128906 -10.726562 2.972656 -11.515625 4.046875 -12.078125 C 5.117188 -12.648438 6.320312 -12.9375 7.65625 -12.9375 C 9 -12.9375 10.203125 -12.648438 11.265625 -12.078125 C 12.335938 -11.515625 13.175781 -10.726562 13.78125 -9.71875 C 14.394531 -8.71875 14.703125 -7.59375 14.703125 -6.34375 C 14.703125 -5.082031 14.394531 -3.953125 13.78125 -2.953125 C 13.175781 -1.953125 12.335938 -1.164062 11.265625 -0.59375 C 10.203125 -0.03125 9 0.25 7.65625 0.25 Z M 7.65625 -2.71875 C 8.300781 -2.71875 8.878906 -2.867188 9.390625 -3.171875 C 9.910156 -3.472656 10.320312 -3.894531 10.625 -4.4375 C 10.925781 -4.988281 11.078125 -5.625 11.078125 -6.34375 C 11.078125 -7.050781 10.925781 -7.675781 10.625 -8.21875 C 10.320312 -8.769531 9.910156 -9.195312 9.390625 -9.5 C 8.878906 -9.800781 8.300781 -9.953125 7.65625 -9.953125 C 7.019531 -9.953125 6.441406 -9.800781 5.921875 -9.5 C 5.398438 -9.195312 4.988281 -8.769531 4.6875 -8.21875 C 4.382812 -7.675781 4.234375 -7.050781 4.234375 -6.34375 C 4.234375 -5.625 4.382812 -4.988281 4.6875 -4.4375 C 4.988281 -3.894531 5.398438 -3.472656 5.921875 -3.171875 C 6.441406 -2.867188 7.019531 -2.71875 7.65625 -2.71875 Z M 7.65625 -2.71875 "/></g></g></g><g fill="#000000" fill-opacity="1"><g transform="translate(92.879779, 145.605823)"><g/></g></g><g fill="#000000" fill-opacity="1"><g transform="translate(98.149088, 145.605823)"><g><path d="M 1.265625 -12.671875 L 4.859375 -12.671875 L 4.859375 0 L 1.265625 0 Z M 1.265625 -12.671875 "/></g></g></g><g fill="#000000" fill-opacity="1"><g transform="translate(104.287558, 145.605823)"><g><path d="M 12.71875 0 L 12.671875 -6.71875 L 9.421875 -1.25 L 7.828125 -1.25 L 4.578125 -6.53125 L 4.578125 0 L 1.265625 0 L 1.265625 -12.671875 L 4.21875 -12.671875 L 8.671875 -5.359375 L 13.015625 -12.671875 L 15.96875 -12.671875 L 16.015625 0 Z M 12.71875 0 "/></g></g></g><g fill="#000000" fill-opacity="1"><g transform="translate(121.56219, 145.605823)"><g><path d="M 9.765625 -2.46875 L 4.40625 -2.46875 L 3.40625 0 L -0.25 0 L 5.34375 -12.671875 L 8.875 -12.671875 L 14.484375 0 L 10.75 0 Z M 8.703125 -5.109375 L 7.078125 -9.15625 L 5.453125 -5.109375 Z M 8.703125 -5.109375 "/></g></g></g><g fill="#000000" fill-opacity="1"><g transform="translate(135.794752, 145.605823)"><g><path d="M 9.765625 -6.609375 L 12.9375 -6.609375 L 12.9375 -1.359375 C 12.207031 -0.835938 11.367188 -0.4375 10.421875 -0.15625 C 9.484375 0.113281 8.546875 0.25 7.609375 0.25 C 6.273438 0.25 5.078125 -0.03125 4.015625 -0.59375 C 2.953125 -1.15625 2.117188 -1.9375 1.515625 -2.9375 C 0.910156 -3.9375 0.609375 -5.070312 0.609375 -6.34375 C 0.609375 -7.601562 0.910156 -8.734375 1.515625 -9.734375 C 2.117188 -10.742188 2.957031 -11.53125 4.03125 -12.09375 C 5.113281 -12.65625 6.328125 -12.9375 7.671875 -12.9375 C 8.859375 -12.9375 9.921875 -12.734375 10.859375 -12.328125 C 11.804688 -11.929688 12.59375 -11.359375 13.21875 -10.609375 L 10.9375 -8.546875 C 10.082031 -9.484375 9.054688 -9.953125 7.859375 -9.953125 C 6.773438 -9.953125 5.898438 -9.625 5.234375 -8.96875 C 4.566406 -8.3125 4.234375 -7.4375 4.234375 -6.34375 C 4.234375 -5.632812 4.382812 -5.003906 4.6875 -4.453125 C 4.988281 -3.910156 5.410156 -3.484375 5.953125 -3.171875 C 6.492188 -2.867188 7.117188 -2.71875 7.828125 -2.71875 C 8.515625 -2.71875 9.160156 -2.859375 9.765625 -3.140625 Z M 9.765625 -6.609375 "/></g></g></g><g fill="#000000" fill-opacity="1"><g transform="translate(149.737589, 145.605823)"><g><path d="M 11.4375 -2.765625 L 11.4375 0 L 1.265625 0 L 1.265625 -12.671875 L 11.203125 -12.671875 L 11.203125 -9.90625 L 4.8125 -9.90625 L 4.8125 -7.765625 L 10.453125 -7.765625 L 10.453125 -5.09375 L 4.8125 -5.09375 L 4.8125 -2.765625 Z M 11.4375 -2.765625 "/></g></g></g><g fill="#000000" fill-opacity="1"><g transform="translate(80.190579, 156.747558)"><g><path d="M 4.125 0 L 3.0625 -1.53125 C 3.019531 -1.53125 2.953125 -1.53125 2.859375 -1.53125 L 1.671875 -1.53125 L 1.671875 0 L 0.703125 0 L 0.703125 -5.234375 L 2.859375 -5.234375 C 3.316406 -5.234375 3.710938 -5.160156 4.046875 -5.015625 C 4.378906 -4.867188 4.632812 -4.65625 4.8125 -4.375 C 5 -4.09375 5.09375 -3.757812 5.09375 -3.375 C 5.09375 -2.976562 4.992188 -2.640625 4.796875 -2.359375 C 4.609375 -2.078125 4.332031 -1.863281 3.96875 -1.71875 L 5.171875 0 Z M 4.109375 -3.375 C 4.109375 -3.707031 4 -3.960938 3.78125 -4.140625 C 3.5625 -4.328125 3.238281 -4.421875 2.8125 -4.421875 L 1.671875 -4.421875 L 1.671875 -2.328125 L 2.8125 -2.328125 C 3.238281 -2.328125 3.5625 -2.414062 3.78125 -2.59375 C 4 -2.78125 4.109375 -3.039062 4.109375 -3.375 Z M 4.109375 -3.375 "/></g></g></g><g fill="#000000" fill-opacity="1"><g transform="translate(85.65303, 156.747558)"><g><path d="M 4.640625 -0.8125 L 4.640625 0 L 0.703125 0 L 0.703125 -5.234375 L 4.53125 -5.234375 L 4.53125 -4.421875 L 1.671875 -4.421875 L 1.671875 -3.0625 L 4.203125 -3.0625 L 4.203125 -2.265625 L 1.671875 -2.265625 L 1.671875 -0.8125 Z M 4.640625 -0.8125 "/></g></g></g><g fill="#000000" fill-opacity="1"><g transform="translate(90.659654, 156.747558)"><g><path d="M 4.09375 -1.21875 L 1.484375 -1.21875 L 0.96875 0 L -0.03125 0 L 2.3125 -5.234375 L 3.28125 -5.234375 L 5.640625 0 L 4.625 0 Z M 3.78125 -1.96875 L 2.796875 -4.265625 L 1.8125 -1.96875 Z M 3.78125 -1.96875 "/></g></g></g><g fill="#000000" fill-opacity="1"><g transform="translate(96.256616, 156.747558)"><g><path d="M 0.703125 -5.234375 L 3 -5.234375 C 3.550781 -5.234375 4.046875 -5.125 4.484375 -4.90625 C 4.921875 -4.695312 5.257812 -4.390625 5.5 -3.984375 C 5.738281 -3.585938 5.859375 -3.132812 5.859375 -2.625 C 5.859375 -2.101562 5.738281 -1.644531 5.5 -1.25 C 5.257812 -0.851562 4.921875 -0.546875 4.484375 -0.328125 C 4.046875 -0.109375 3.550781 0 3 0 L 0.703125 0 Z M 2.953125 -0.828125 C 3.335938 -0.828125 3.675781 -0.898438 3.96875 -1.046875 C 4.257812 -1.191406 4.484375 -1.398438 4.640625 -1.671875 C 4.796875 -1.941406 4.875 -2.257812 4.875 -2.625 C 4.875 -2.976562 4.796875 -3.289062 4.640625 -3.5625 C 4.484375 -3.832031 4.257812 -4.039062 3.96875 -4.1875 C 3.675781 -4.34375 3.335938 -4.421875 2.953125 -4.421875 L 1.671875 -4.421875 L 1.671875 -0.828125 Z M 2.953125 -0.828125 "/></g></g></g><g fill="#000000" fill-opacity="1"><g transform="translate(102.428965, 156.747558)"><g><path d="M 4.640625 -0.8125 L 4.640625 0 L 0.703125 0 L 0.703125 -5.234375 L 4.53125 -5.234375 L 4.53125 -4.421875 L 1.671875 -4.421875 L 1.671875 -3.0625 L 4.203125 -3.0625 L 4.203125 -2.265625 L 1.671875 -2.265625 L 1.671875 -0.8125 Z M 4.640625 -0.8125 "/></g></g></g><g fill="#000000" fill-opacity="1"><g transform="translate(107.43559, 156.747558)"><g><path d="M 4.125 0 L 3.0625 -1.53125 C 3.019531 -1.53125 2.953125 -1.53125 2.859375 -1.53125 L 1.671875 -1.53125 L 1.671875 0 L 0.703125 0 L 0.703125 -5.234375 L 2.859375 -5.234375 C 3.316406 -5.234375 3.710938 -5.160156 4.046875 -5.015625 C 4.378906 -4.867188 4.632812 -4.65625 4.8125 -4.375 C 5 -4.09375 5.09375 -3.757812 5.09375 -3.375 C 5.09375 -2.976562 4.992188 -2.640625 4.796875 -2.359375 C 4.609375 -2.078125 4.332031 -1.863281 3.96875 -1.71875 L 5.171875 0 Z M 4.109375 -3.375 C 4.109375 -3.707031 4 -3.960938 3.78125 -4.140625 C 3.5625 -4.328125 3.238281 -4.421875 2.8125 -4.421875 L 1.671875 -4.421875 L 1.671875 -2.328125 L 2.8125 -2.328125 C 3.238281 -2.328125 3.5625 -2.414062 3.78125 -2.59375 C 4 -2.78125 4.109375 -3.039062 4.109375 -3.375 Z M 4.109375 -3.375 "/></g></g></g><g fill="#000000" fill-opacity="1"><g transform="translate(112.898041, 156.747558)"><g><path d="M 2.328125 0.078125 C 1.921875 0.078125 1.53125 0.0195312 1.15625 -0.09375 C 0.78125 -0.207031 0.484375 -0.359375 0.265625 -0.546875 L 0.59375 -1.3125 C 0.8125 -1.144531 1.078125 -1.003906 1.390625 -0.890625 C 1.703125 -0.785156 2.015625 -0.734375 2.328125 -0.734375 C 2.710938 -0.734375 3 -0.796875 3.1875 -0.921875 C 3.382812 -1.046875 3.484375 -1.210938 3.484375 -1.421875 C 3.484375 -1.566406 3.429688 -1.6875 3.328125 -1.78125 C 3.222656 -1.882812 3.085938 -1.960938 2.921875 -2.015625 C 2.753906 -2.066406 2.53125 -2.128906 2.25 -2.203125 C 1.84375 -2.296875 1.515625 -2.390625 1.265625 -2.484375 C 1.023438 -2.578125 0.816406 -2.722656 0.640625 -2.921875 C 0.460938 -3.128906 0.375 -3.40625 0.375 -3.75 C 0.375 -4.039062 0.453125 -4.300781 0.609375 -4.53125 C 0.765625 -4.769531 1 -4.957031 1.3125 -5.09375 C 1.632812 -5.238281 2.023438 -5.3125 2.484375 -5.3125 C 2.804688 -5.3125 3.117188 -5.269531 3.421875 -5.1875 C 3.734375 -5.113281 4.003906 -5 4.234375 -4.84375 L 3.921875 -4.09375 C 3.691406 -4.226562 3.453125 -4.328125 3.203125 -4.390625 C 2.953125 -4.460938 2.710938 -4.5 2.484375 -4.5 C 2.097656 -4.5 1.8125 -4.429688 1.625 -4.296875 C 1.4375 -4.171875 1.34375 -4.003906 1.34375 -3.796875 C 1.34375 -3.640625 1.394531 -3.515625 1.5 -3.421875 C 1.601562 -3.328125 1.738281 -3.253906 1.90625 -3.203125 C 2.070312 -3.148438 2.296875 -3.085938 2.578125 -3.015625 C 2.972656 -2.921875 3.296875 -2.828125 3.546875 -2.734375 C 3.796875 -2.640625 4.007812 -2.488281 4.1875 -2.28125 C 4.363281 -2.082031 4.453125 -1.816406 4.453125 -1.484375 C 4.453125 -1.191406 4.367188 -0.925781 4.203125 -0.6875 C 4.046875 -0.457031 3.804688 -0.269531 3.484375 -0.125 C 3.171875 0.0078125 2.785156 0.078125 2.328125 0.078125 Z M 2.328125 0.078125 "/></g></g></g><g fill="#000000" fill-opacity="1"><g transform="translate(117.598299, 156.747558)"><g/></g></g><g fill="#000000" fill-opacity="1"><g transform="translate(119.660728, 156.747558)"><g><path d="M 2.328125 0.078125 C 1.921875 0.078125 1.53125 0.0195312 1.15625 -0.09375 C 0.78125 -0.207031 0.484375 -0.359375 0.265625 -0.546875 L 0.59375 -1.3125 C 0.8125 -1.144531 1.078125 -1.003906 1.390625 -0.890625 C 1.703125 -0.785156 2.015625 -0.734375 2.328125 -0.734375 C 2.710938 -0.734375 3 -0.796875 3.1875 -0.921875 C 3.382812 -1.046875 3.484375 -1.210938 3.484375 -1.421875 C 3.484375 -1.566406 3.429688 -1.6875 3.328125 -1.78125 C 3.222656 -1.882812 3.085938 -1.960938 2.921875 -2.015625 C 2.753906 -2.066406 2.53125 -2.128906 2.25 -2.203125 C 1.84375 -2.296875 1.515625 -2.390625 1.265625 -2.484375 C 1.023438 -2.578125 0.816406 -2.722656 0.640625 -2.921875 C 0.460938 -3.128906 0.375 -3.40625 0.375 -3.75 C 0.375 -4.039062 0.453125 -4.300781 0.609375 -4.53125 C 0.765625 -4.769531 1 -4.957031 1.3125 -5.09375 C 1.632812 -5.238281 2.023438 -5.3125 2.484375 -5.3125 C 2.804688 -5.3125 3.117188 -5.269531 3.421875 -5.1875 C 3.734375 -5.113281 4.003906 -5 4.234375 -4.84375 L 3.921875 -4.09375 C 3.691406 -4.226562 3.453125 -4.328125 3.203125 -4.390625 C 2.953125 -4.460938 2.710938 -4.5 2.484375 -4.5 C 2.097656 -4.5 1.8125 -4.429688 1.625 -4.296875 C 1.4375 -4.171875 1.34375 -4.003906 1.34375 -3.796875 C 1.34375 -3.640625 1.394531 -3.515625 1.5 -3.421875 C 1.601562 -3.328125 1.738281 -3.253906 1.90625 -3.203125 C 2.070312 -3.148438 2.296875 -3.085938 2.578125 -3.015625 C 2.972656 -2.921875 3.296875 -2.828125 3.546875 -2.734375 C 3.796875 -2.640625 4.007812 -2.488281 4.1875 -2.28125 C 4.363281 -2.082031 4.453125 -1.816406 4.453125 -1.484375 C 4.453125 -1.191406 4.367188 -0.925781 4.203125 -0.6875 C 4.046875 -0.457031 3.804688 -0.269531 3.484375 -0.125 C 3.171875 0.0078125 2.785156 0.078125 2.328125 0.078125 Z M 2.328125 0.078125 "/></g></g></g><g fill="#000000" fill-opacity="1"><g transform="translate(124.360986, 156.747558)"><g><path d="M 5.359375 -5.234375 L 5.359375 0 L 4.390625 0 L 4.390625 -2.25 L 1.671875 -2.25 L 1.671875 0 L 0.703125 0 L 0.703125 -5.234375 L 1.671875 -5.234375 L 1.671875 -3.078125 L 4.390625 -3.078125 L 4.390625 -5.234375 Z M 5.359375 -5.234375 "/></g></g></g><g fill="#000000" fill-opacity="1"><g transform="translate(130.413774, 156.747558)"><g><path d="M 4.640625 -0.8125 L 4.640625 0 L 0.703125 0 L 0.703125 -5.234375 L 4.53125 -5.234375 L 4.53125 -4.421875 L 1.671875 -4.421875 L 1.671875 -3.0625 L 4.203125 -3.0625 L 4.203125 -2.265625 L 1.671875 -2.265625 L 1.671875 -0.8125 Z M 4.640625 -0.8125 "/></g></g></g><g fill="#000000" fill-opacity="1"><g transform="translate(135.420399, 156.747558)"><g><path d="M 0.703125 -5.234375 L 1.671875 -5.234375 L 1.671875 -0.828125 L 4.421875 -0.828125 L 4.421875 0 L 0.703125 0 Z M 0.703125 -5.234375 "/></g></g></g><g fill="#000000" fill-opacity="1"><g transform="translate(139.896472, 156.747558)"><g><path d="M 1.671875 -4.421875 L 1.671875 -2.828125 L 4.203125 -2.828125 L 4.203125 -2 L 1.671875 -2 L 1.671875 0 L 0.703125 0 L 0.703125 -5.234375 L 4.53125 -5.234375 L 4.53125 -4.421875 Z M 1.671875 -4.421875 "/></g></g></g><g fill="#ffffff" fill-opacity="1"><g transform="translate(98.219648, 167.873437)"><g><path d="M 4.421875 -2.71875 C 4.703125 -2.625 4.925781 -2.46875 5.09375 -2.25 C 5.269531 -2.03125 5.359375 -1.753906 5.359375 -1.421875 C 5.359375 -0.960938 5.179688 -0.609375 4.828125 -0.359375 C 4.484375 -0.117188 3.976562 0 3.3125 0 L 0.703125 0 L 0.703125 -5.234375 L 3.15625 -5.234375 C 3.78125 -5.234375 4.257812 -5.113281 4.59375 -4.875 C 4.925781 -4.632812 5.09375 -4.300781 5.09375 -3.875 C 5.09375 -3.613281 5.03125 -3.382812 4.90625 -3.1875 C 4.789062 -2.988281 4.628906 -2.832031 4.421875 -2.71875 Z M 1.671875 -4.46875 L 1.671875 -3.03125 L 3.046875 -3.03125 C 3.390625 -3.03125 3.648438 -3.085938 3.828125 -3.203125 C 4.015625 -3.328125 4.109375 -3.507812 4.109375 -3.75 C 4.109375 -3.988281 4.015625 -4.164062 3.828125 -4.28125 C 3.648438 -4.40625 3.390625 -4.46875 3.046875 -4.46875 Z M 3.25 -0.765625 C 4 -0.765625 4.375 -1.015625 4.375 -1.515625 C 4.375 -2.023438 4 -2.28125 3.25 -2.28125 L 1.671875 -2.28125 L 1.671875 -0.765625 Z M 3.25 -0.765625 "/></g></g></g><g fill="#ffffff" fill-opacity="1"><g transform="translate(103.906283, 167.873437)"><g><path d="M 3.15625 0.078125 C 2.613281 0.078125 2.128906 -0.0351562 1.703125 -0.265625 C 1.273438 -0.503906 0.9375 -0.828125 0.6875 -1.234375 C 0.445312 -1.648438 0.328125 -2.113281 0.328125 -2.625 C 0.328125 -3.132812 0.445312 -3.59375 0.6875 -4 C 0.9375 -4.414062 1.273438 -4.738281 1.703125 -4.96875 C 2.128906 -5.195312 2.613281 -5.3125 3.15625 -5.3125 C 3.6875 -5.3125 4.164062 -5.195312 4.59375 -4.96875 C 5.019531 -4.738281 5.351562 -4.414062 5.59375 -4 C 5.84375 -3.59375 5.96875 -3.132812 5.96875 -2.625 C 5.96875 -2.101562 5.84375 -1.640625 5.59375 -1.234375 C 5.351562 -0.828125 5.019531 -0.503906 4.59375 -0.265625 C 4.164062 -0.0351562 3.6875 0.078125 3.15625 0.078125 Z M 3.15625 -0.78125 C 3.5 -0.78125 3.8125 -0.859375 4.09375 -1.015625 C 4.375 -1.171875 4.59375 -1.390625 4.75 -1.671875 C 4.90625 -1.953125 4.984375 -2.269531 4.984375 -2.625 C 4.984375 -2.96875 4.90625 -3.28125 4.75 -3.5625 C 4.59375 -3.84375 4.375 -4.0625 4.09375 -4.21875 C 3.8125 -4.375 3.5 -4.453125 3.15625 -4.453125 C 2.800781 -4.453125 2.484375 -4.375 2.203125 -4.21875 C 1.921875 -4.0625 1.703125 -3.84375 1.546875 -3.5625 C 1.390625 -3.28125 1.3125 -2.96875 1.3125 -2.625 C 1.3125 -2.269531 1.390625 -1.953125 1.546875 -1.671875 C 1.703125 -1.390625 1.921875 -1.171875 2.203125 -1.015625 C 2.484375 -0.859375 2.800781 -0.78125 3.15625 -0.78125 Z M 3.15625 -0.78125 "/></g></g></g><g fill="#ffffff" fill-opacity="1"><g transform="translate(110.198194, 167.873437)"><g><path d="M 3.15625 0.078125 C 2.613281 0.078125 2.128906 -0.0351562 1.703125 -0.265625 C 1.273438 -0.503906 0.9375 -0.828125 0.6875 -1.234375 C 0.445312 -1.648438 0.328125 -2.113281 0.328125 -2.625 C 0.328125 -3.132812 0.445312 -3.59375 0.6875 -4 C 0.9375 -4.414062 1.273438 -4.738281 1.703125 -4.96875 C 2.128906 -5.195312 2.613281 -5.3125 3.15625 -5.3125 C 3.6875 -5.3125 4.164062 -5.195312 4.59375 -4.96875 C 5.019531 -4.738281 5.351562 -4.414062 5.59375 -4 C 5.84375 -3.59375 5.96875 -3.132812 5.96875 -2.625 C 5.96875 -2.101562 5.84375 -1.640625 5.59375 -1.234375 C 5.351562 -0.828125 5.019531 -0.503906 4.59375 -0.265625 C 4.164062 -0.0351562 3.6875 0.078125 3.15625 0.078125 Z M 3.15625 -0.78125 C 3.5 -0.78125 3.8125 -0.859375 4.09375 -1.015625 C 4.375 -1.171875 4.59375 -1.390625 4.75 -1.671875 C 4.90625 -1.953125 4.984375 -2.269531 4.984375 -2.625 C 4.984375 -2.96875 4.90625 -3.28125 4.75 -3.5625 C 4.59375 -3.84375 4.375 -4.0625 4.09375 -4.21875 C 3.8125 -4.375 3.5 -4.453125 3.15625 -4.453125 C 2.800781 -4.453125 2.484375 -4.375 2.203125 -4.21875 C 1.921875 -4.0625 1.703125 -3.84375 1.546875 -3.5625 C 1.390625 -3.28125 1.3125 -2.96875 1.3125 -2.625 C 1.3125 -2.269531 1.390625 -1.953125 1.546875 -1.671875 C 1.703125 -1.390625 1.921875 -1.171875 2.203125 -1.015625 C 2.484375 -0.859375 2.800781 -0.78125 3.15625 -0.78125 Z M 3.15625 -0.78125 "/></g></g></g><g fill="#ffffff" fill-opacity="1"><g transform="translate(116.490105, 167.873437)"><g><path d="M 2.5 -2.1875 L 1.671875 -1.34375 L 1.671875 0 L 0.703125 0 L 0.703125 -5.234375 L 1.671875 -5.234375 L 1.671875 -2.546875 L 4.265625 -5.234375 L 5.359375 -5.234375 L 3.15625 -2.890625 L 5.5 0 L 4.359375 0 Z M 2.5 -2.1875 "/></g></g></g><g fill="#ffffff" fill-opacity="1"><g transform="translate(121.937618, 167.873437)"><g><path d="M 2.328125 0.078125 C 1.921875 0.078125 1.53125 0.0195312 1.15625 -0.09375 C 0.78125 -0.207031 0.484375 -0.359375 0.265625 -0.546875 L 0.59375 -1.3125 C 0.8125 -1.144531 1.078125 -1.003906 1.390625 -0.890625 C 1.703125 -0.785156 2.015625 -0.734375 2.328125 -0.734375 C 2.710938 -0.734375 3 -0.796875 3.1875 -0.921875 C 3.382812 -1.046875 3.484375 -1.210938 3.484375 -1.421875 C 3.484375 -1.566406 3.429688 -1.6875 3.328125 -1.78125 C 3.222656 -1.882812 3.085938 -1.960938 2.921875 -2.015625 C 2.753906 -2.066406 2.53125 -2.128906 2.25 -2.203125 C 1.84375 -2.296875 1.515625 -2.390625 1.265625 -2.484375 C 1.023438 -2.578125 0.816406 -2.722656 0.640625 -2.921875 C 0.460938 -3.128906 0.375 -3.40625 0.375 -3.75 C 0.375 -4.039062 0.453125 -4.300781 0.609375 -4.53125 C 0.765625 -4.769531 1 -4.957031 1.3125 -5.09375 C 1.632812 -5.238281 2.023438 -5.3125 2.484375 -5.3125 C 2.804688 -5.3125 3.117188 -5.269531 3.421875 -5.1875 C 3.734375 -5.113281 4.003906 -5 4.234375 -4.84375 L 3.921875 -4.09375 C 3.691406 -4.226562 3.453125 -4.328125 3.203125 -4.390625 C 2.953125 -4.460938 2.710938 -4.5 2.484375 -4.5 C 2.097656 -4.5 1.8125 -4.429688 1.625 -4.296875 C 1.4375 -4.171875 1.34375 -4.003906 1.34375 -3.796875 C 1.34375 -3.640625 1.394531 -3.515625 1.5 -3.421875 C 1.601562 -3.328125 1.738281 -3.253906 1.90625 -3.203125 C 2.070312 -3.148438 2.296875 -3.085938 2.578125 -3.015625 C 2.972656 -2.921875 3.296875 -2.828125 3.546875 -2.734375 C 3.796875 -2.640625 4.007812 -2.488281 4.1875 -2.28125 C 4.363281 -2.082031 4.453125 -1.816406 4.453125 -1.484375 C 4.453125 -1.191406 4.367188 -0.925781 4.203125 -0.6875 C 4.046875 -0.457031 3.804688 -0.269531 3.484375 -0.125 C 3.171875 0.0078125 2.785156 0.078125 2.328125 0.078125 Z M 2.328125 0.078125 "/></g></g></g></svg>